<svg version="1.2" xmlns="http://www.w3.org/2000/svg" viewBox="0 0 637 479" width="637" height="479"><style></style><path  d="m274.1 17.7c-9.7 9.8-19.2 24-47.3 70.6l-11.3 18.7-48.3 0.1c-36.9 0-48.1 0.3-47.5 1.2 0.6 1.2 40.4 62.2 54.8 84.2 4 6 12 18.4 17.9 27.4l10.7 16.4-4.5 12.1c-5.9 16.1-14.6 46.4-14.6 50.9 0 4 1.6 5.6 3.4 3.6 0.7-0.8 2.3-6.4 3.5-12.4 1.2-6.1 3.3-14.2 4.6-18 3.6-10.4 10.9-28.4 11.7-28.7 0.6-0.3 11.1 15.6 53.8 81.3l14.7 22.6-3.4 11.4c-1.9 6.3-4.7 17-6.3 23.9-1.6 6.9-4.3 18.3-6 25.5-3.1 12.4-12.2 63.6-11.6 64.3 0.6 0.5 4.3-12.4 8.5-29.8 11-45.6 14.7-60 19.6-76.8 3-10.1 6.4-20 7.7-22 1.2-2 8.1-12.7 15.3-23.7 7.3-11 28.7-43.9 47.7-73 19-29.2 47.2-72.3 62.6-96 15.4-23.6 27.9-43.2 27.7-43.5-0.2-0.4-16.7-0.8-36.7-0.9-19.9-0.1-36.4-0.4-36.5-0.5-0.2-0.2 0.6-2.9 1.7-6.2 4.1-11.9 6.2-21.5 4.9-23-0.6-0.8-1.7-1.4-2.4-1.4-1.9 0-10.3 9.4-18.5 20.5-4 5.5-7.4 10.2-7.6 10.3-0.3 0.4-88.6 0.3-89-0.1-0.1-0.1 5.8-15.3 13.2-33.7 13.4-33.3 20.8-55.2 20.2-60-0.2-1.7-1-2.6-2.6-2.8-1.7-0.3-4.1 1.5-10.1 7.5zm5.1 8.4c-1.7 4.1-4.3 10.4-6 14-1.7 3.6-8.3 19.8-14.7 36-6.4 16.2-12 29.8-12.4 30.2-0.4 0.4-6.2 0.6-12.8 0.5l-12-0.3 10.6-17.6c11.6-19.2 41.8-64.8 45.9-69.2 4-4.3 4.6-1.7 1.4 6.4zm83.1 70.6c-3.9 10.7-4.7 11.5-10.4 10.3-2.6-0.5-2.6-0.5 4.9-11.2 4.2-6 8-10.4 8.4-10 0.4 0.4-0.9 5.4-2.9 10.9zm-148.3 12.7c0 0.8-22.5 39.2-29.1 49.8-4.2 6.7-4.6 7.8-3.3 8.9 1.1 0.9 2 1 3.2 0.3 0.9-0.6 6.4-9.6 12.3-20 5.8-10.4 13.3-23.4 16.6-28.9l6-10 12.7-0.3 12.8-0.3-0.8 2.3c-0.3 1.3-4.5 12-9.1 23.8-19.3 49-21.6 56.4-19.4 62.5 1.1 3 0.7 4.5-5.2 19.4-3.6 8.9-6.7 16.4-6.9 16.7-0.3 0.2-9.1-12.7-19.6-28.8-10.5-16.1-22.9-35.2-27.6-42.3-7.8-12-30-46-33.4-51.3l-1.4-2.2h46.1c25.3 0 46.1 0.2 46.1 0.4zm143 0.9c0 0.7-1.3 4.6-2.9 8.7-1.6 4.1-7.6 20.8-13.4 37-5.8 16.2-14.7 40.5-19.7 54-10.3 27.3-33.3 96.5-41.1 123.7-1.8 6.2-3.5 11.3-3.9 11.3-0.3-0.1-2.7-3.5-5.4-7.8-2.8-4.2-9.6-14.7-15.1-23.2-27.4-41.9-44.3-67.8-45.9-70.5l-1.8-3.1 8.5-19.1c7.6-17.1 9.8-21 21-37 13.4-19 38.4-50.2 40.4-50.3 0.6 0 1.5 0.4 1.8 1 1.3 2.2-7.3 24.9-21.4 56.2-6.5 14.5-7.5 18.8-4.1 18.8 2.9 0 5-2.8 14.5-19.6 4.9-8.4 9.1-15.1 9.5-14.9 0.4 0.3-0.7 5.5-2.5 11.7-3.7 13.1-5.2 24.3-3.4 26.4 1.4 1.7 4.8 1.8 7 0.1 1.4-1.1 10.2-15 29.6-46.7 11.2-18.2 14.5-23.2 26.8-40.8l12-17.2h4.7c3.2 0 4.8 0.4 4.8 1.3zm-17-0.9c0 0.3-6.4 10.3-14.3 22.3-19.7 30-24.3 37.2-36.4 57-5.7 9.5-10.9 17.3-11.4 17.3-1.6 0-0.4-3 8.6-22 10.7-22.4 13.6-29.8 12.3-30.6-1.5-1-3.2 1.2-9.3 12.1-3.5 6.1-5.4 8.8-5.1 7 0.3-1.7 0.9-5.1 1.2-7.8 1.1-7.8-1.6-6-10.1 6.7-4.2 6.3-8.3 12-9.1 12.7-0.8 0.7 1-4.1 4-10.5 5.3-11.2 11.7-29.2 13.1-36.6 0.9-4.9-1.1-7.4-5-6.4-3.3 0.8-21.3 18.3-28.1 27.4-8.3 11.1-16.6 22.5-17.4 24-1.4 2.5-1.9 0.7-1-3.5 1.2-5.2 1.2-8.5 0.1-8.5-0.5 0-1.3 0.9-1.6 2.1-0.4 1.1-3.2 7.3-6.2 13.7-5.6 11.8-7.9 13.7-4.8 4 2-6.1 26-66.4 29.9-75.1l2.6-5.7h44c24.2 0 44 0.2 44 0.4zm95 0.3c0 0.6-8.6 13.9-50.3 77.8-13.3 20.4-28.3 43.3-33.3 51-5 7.7-21.6 33.1-36.8 56.5-15.3 23.4-28.4 43.1-29.1 43.9-1.8 1.8-0.2-3.4 12.2-41.9 5.3-16.2 11.1-34.5 13-40.5 2-6.1 9.1-25.9 15.8-44 6.8-18.2 14.8-40.2 17.8-49 5.3-15.3 17.4-50.6 18.2-53.3 0.4-0.9 8.5-1.2 36.5-1.2 19.8 0 36 0.3 36 0.7z"/><path  d="m7.3 302.1c1.5 0.9 1.7 3 1.7 21.7 0 22.3-0.3 24.9-2.9 25.5-0.9 0.3 1.2 0.5 4.7 0.6 5.8 0.1 6.2 0 4.8-1.5-1.2-1.2-1.6-3.7-1.6-10.5v-8.9h4.8l4.7 0.1 5.5 7.5c3 4.2 7 8.9 8.8 10.5 3 2.7 3.9 2.9 11.1 2.9 7 0 7.9-0.2 7.5-1.8-0.3-0.9 0.4-4.2 1.4-7.2l1.9-5.5 7.5-0.3 7.5-0.3 2.9 7.5 2.9 7.6 5-0.1c4.1 0 4.6-0.2 2.7-0.9-2.5-1.1-5.4-6.8-14.2-28.8-2.9-7.2-5.6-13.2-5.9-13.2-0.3 0-3.5 7.5-7 16.8-8.8 22.7-10 25.2-12.2 25.2-2.5 0-7.8-4.8-15-13.7l-6-7.6 2.5-2.6c3-3.1 5.6-9 5.6-12.6 0-3.8-2.6-8.3-6-10-3.5-1.8-25.8-2.2-22.7-0.4zm19.5 3.1c4.8 4.6 5.3 13.9 1.1 19.2-1.9 2.4-2.7 2.7-7.8 2.4l-5.6-0.3-0.3-11.4c-0.2-8.5 0.1-11.7 1-12.3 2.1-1.4 9.1 0.1 11.6 2.4zm46.2 26.5c0 0.9-1.8 1.3-6 1.3-3.3 0-6-0.2-6-0.3 0-0.5 3.6-10.6 5-14.2l1.2-3 2.9 7.5c1.6 4.1 2.9 8 2.9 8.7z"/><path  d="m336.7 310.2c-4.1 40-4.4 41.7-7 42.8-1.5 0.6-0.1 0.9 4.8 0.8 3.9 0 6-0.3 4.8-0.5-1.2-0.2-2.4-1-2.6-1.7-0.5-1.2 0.7-19.3 1.8-27.6 0.2-1.9 0.5-4.4 0.5-5.5 0.1-1.1 4.1 6.3 9 16.3 5.1 10.6 9.4 18.2 10.1 18 0.6-0.2 5-8.7 9.8-18.8 9.9-21.3 9-21.7 11.2 4.7l1.2 15.3 6.6-0.1c3.6-0.1 5.4-0.4 3.8-0.6-1.5-0.2-3.4-1.4-4.1-2.6-1.2-2-3.5-19-5.2-39-0.4-4.5-1.1-7.6-1.7-7.4-0.6 0.2-5.2 9.3-10.3 20.2-8.2 17.6-11.4 23.1-11.4 19.7 0-1.7-19.2-40.2-20-40.2-0.4 0-1 2.8-1.3 6.2z"/><path  d="m141.7 310c-0.8 1.9-4.4 11.3-8.2 20.8-5.1 13.1-7.2 17.5-8.9 18.2-1.6 0.7-1.1 0.9 2.6 0.9 3.8 0.1 4.6-0.2 4.2-1.4-0.4-0.9 0.4-4.2 1.6-7.5l2.2-6h7.4 7.4l1.6 3.7c0.8 2.1 2.1 5.5 2.7 7.5l1.2 3.8 5.5-0.1c3-0.1 4.5-0.4 3.2-0.6-3.1-0.6-4.1-2.4-12-22-9.1-22.3-8.7-21.7-10.5-17.3zm4.8 15.5c1.2 3.5 2 6.6 1.7 6.9-0.3 0.3-3 0.6-6 0.6-5.4 0-5.4 0-4.9-2.8 0.3-1.5 1.5-5.4 2.8-8.6 2.4-6.7 2.5-6.6 6.4 3.9z"/><path  d="m96.8 308.7c2.2 0.4 2.2 0.5 2.2 20.3 0 14.9-0.3 20-1.2 20.3-0.7 0.3 1.4 0.5 4.7 0.5 3.3 0 5.3-0.2 4.3-0.5-1.3-0.3-1.8-2.2-2.3-8.8-0.4-4.7-0.5-9.1-0.1-10 0.4-1.1 2-1.5 6-1.5 4.5 0 5.8 0.4 7 2.2 1.6 2.2 1.6 2.2 1.6-1.2v-3.5h-7.2-7.3l-0.3-5c-0.2-2.7-0.1-6.5 0.3-8.2 0.6-3.2 0.7-3.3 6-3.3 4.1 0 6 0.5 7.4 1.9 1.9 1.9 1.9 1.9 2.3-1l0.5-2.9-13.1 0.1c-7.2 0.1-12.1 0.4-10.8 0.6z"/><path  d="m172 308.9l2.5 0.7 0.3 18.6c0.2 16.1 0 18.8-1.4 20.2-1.5 1.5-0.7 1.6 10.2 1.4l11.9-0.3 0.3-3 0.4-2.9-1.9 2.3c-1.5 1.8-3 2.4-6.4 2.5-7.7 0.1-7.9-0.1-7.9-10.4v-9h5.5c4.1 0 5.6 0.4 6.4 1.7 0.9 1.6 1 1.6 1.1 0.1 0-0.9 0.2-2.3 0.5-3 0.4-1.1-0.8-1.3-6.5-1l-7 0.4v-8.6-8.6h4.3c5.8 0 8.5 0.9 9 2.9 0.2 0.9 0.5 0.1 0.8-1.7l0.6-3.2-12.6 0.1c-6.9 0.1-11.5 0.4-10.1 0.8z"/><path  d="m208.8 309c2.2 0.9 2.2 1.2 2.2 19.9 0 17-0.2 19.1-1.7 20-1.3 0.8 1.9 1 11.3 1.1h13.2l0.6-3.2c0.7-3.6 0.1-5-0.9-1.9-0.3 1.1-1.6 2.3-2.8 2.7-3.4 1.1-11.7 0.8-13-0.5-1.3-1.3-2.4-31.3-1.3-35.5 0.3-1.4 1.4-2.7 2.4-2.9 0.9-0.3-1.4-0.5-5.3-0.5-5.1-0.1-6.4 0.2-4.7 0.8z"/><path  d="m412 312.1c-6.3 0.3-10.7 0.6-9.7 0.7 1.5 0.2 1.7 1.8 1.7 18.9 0 10.4-0.4 19.3-0.8 19.9-0.4 0.6-1.4 1.4-2.2 1.7-0.8 0.3 4.2 0.6 11.3 0.6 11.9 0.1 12.7 0 12.7-1.8 0-1.1 0.3-2.8 0.6-3.8 0.5-1.5 0.3-1.5-0.7 0.2-1.9 3-3 3.5-8.6 3.5-6.5 0-7.3-1.2-7.3-11.4v-7.6h6c4.6 0 6.1 0.4 6.9 1.7 0.8 1.5 1 1.1 1.1-1.9 0-3.4-0.2-3.7-2.2-3-1.3 0.4-4.3 0.7-6.8 0.7h-4.5l-0.3-8.3-0.3-8.2h6c4.7 0 6.2 0.4 7 1.7 1.2 2.3 2.3 1.2 1.9-1.9-0.3-2.3-0.3-2.3-11.8-1.7z"/><path  d="m439.7 311.6c-0.3 0.6-0.6 9-0.6 18.7 0 9.7-0.1 18.8-0.1 20.1 0 1.5-0.7 2.6-1.7 2.9-1 0.3 1.1 0.5 4.7 0.4 3.6 0 5.5-0.2 4.3-0.4-1.2-0.2-2.4-1.2-2.7-2.1-0.8-3.1-1.8-30.2-1-30.2 0.4 0 8 7.5 17 16.7 8.9 9.2 16.5 16.5 16.8 16.2 0.4-0.3 0.6-5.9 0.6-12.5 0-18.8 1-28.2 2.9-28.7 0.9-0.3-1.1-0.5-4.4-0.5-4.5-0.1-5.4 0.1-3.7 0.8 1.8 0.8 2.2 1.7 2.2 5.7 0 2.6 0.3 10 0.6 16.3l0.6 11.5-17.4-18c-9.6-9.8-17.7-17.4-18.1-16.9z"/><path  d="m502 312.1c-6.3 0.3-10.8 0.6-9.9 0.7 2.6 0.3 2.9 2.3 2.9 18.7 0 17.2-0.5 21.2-2.9 21.8-0.9 0.3 4 0.4 10.9 0.4l12.5-0.2 0.3-3.5c0.3-3.4 0.2-3.5-1-1-1.1 2.1-2.2 2.5-6.7 2.8-7.4 0.4-8.1-0.4-8.1-10.4v-8.4h6c4.9 0 6 0.3 6 1.7 0 2.4 0.6 1.3 1.3-2.3l0.6-3.1-4.2 0.6c-9.4 1.4-9.2 1.6-9.5-7.7l-0.3-8.2h6.2c5.5 0 6.1 0.2 6.7 2.2 0.5 2.1 0.6 2.1 1.4-0.7 0.4-1.6 0.4-3.2 0-3.5-0.4-0.3-5.9-0.3-12.2 0.1z"/><path  d="m527.4 315.3c-0.3 2.1-0.3 4.1 0 4.4 0.3 0.4 0.6-0.1 0.6-1 0-3.4 4-4.7 14.3-4.7h9.8l-12.7 18.7c-6.9 10.3-12.8 19.3-13.1 20-0.4 1 2.9 1.3 15.5 1.3 15.7 0 16 0 16.6-2.3 0.3-1.2 0.5-3.1 0.5-4.2 0-1.9-0.1-1.8-1.1 0.2-0.6 1.3-2.6 2.7-4.7 3.3-4.1 1.1-20.1 1.4-20.1 0.3 0-0.4 5.7-9.2 12.6-19.6 7-10.3 12.5-19 12.3-19.2-0.2-0.2-7-0.5-15.1-0.7l-14.7-0.3z"/><path  d="m579 312c-6.3 0.3-10.5 0.8-9.2 1.2 2.2 0.6 2.2 0.8 2.2 18 0 18.8-0.4 21.5-2.9 22.1-0.9 0.3 4 0.4 10.9 0.4l12.5-0.2 0.3-3 0.3-3-1.6 2.2c-1.3 1.9-2.6 2.3-6.9 2.3-2.8 0-5.7-0.5-6.4-1.2-0.7-0.7-1.2-4.4-1.2-9.5v-8.3h6c4.8 0 6 0.3 6 1.6 0 0.8 0.5 1.2 1 0.9 0.6-0.3 1-2 1-3.6 0-1.7-0.4-2.8-0.8-2.5-0.4 0.2-3.5 0.6-6.7 0.8l-6 0.3-0.3-8.3-0.3-8.2h6.1c5.4 0 6.2 0.3 6.9 2.2 0.9 2.3 0.9 2.2 1.6-0.5 0.4-1.6 0.4-3.2-0.1-3.5-0.5-0.4-6.1-0.5-12.4-0.2z"/><path  d="m608.3 313.1c-6.4 4.1-5.6 11.9 2 18.2 10.1 8.4 11.7 10.3 11.7 13.9 0 4.2-2.4 6.7-7.1 7.4-4.8 0.8-8.7-1-10.4-4.8l-1.5-3.3 0.3 4.4c0.2 4 0.5 4.6 3.2 5.3 4.4 1.3 12.1 0.2 15.5-2.2 1.7-1.2 3.4-3.7 4.1-6 1-3.2 0.9-4.4-0.7-7.6-1.1-2.1-3.9-5.3-6.4-7.1-8.7-6.3-11-8.8-11-12 0-4.2 2.7-6.3 8.3-6.3 3.7 0 4.9 0.5 6.6 2.6l2.1 2.7v-3.1c0-3.6-1.3-4.2-8.3-4.2-3.5 0-6.2 0.7-8.4 2.1z"/><path  d="m463 364.4c0 0.2 0.9 0.6 2 0.9 1.1 0.3 1.8 0.1 1.4-0.4-0.5-0.9-3.4-1.3-3.4-0.5z"/><path  d="m460.1 368.1c-0.1 1.7 1 3.6 3.4 5.9 1.9 1.8 3.1 3.8 2.8 4.3-0.3 0.6-0.1 0.7 0.5 0.3 0.6-0.4 2.2-0.2 3.4 0.5 1.3 0.6-0.3-1.2-3.4-4-3.1-2.9-5.9-6.2-6.1-7.4-0.4-2-0.4-1.9-0.6 0.4z"/><path  d="m556.2 372.7l-0.2 7.3 3.3-0.1c2.9-0.2 3-0.2 0.5-0.6-2.6-0.4-2.7-0.7-3.1-7.1l-0.3-6.7z"/><path  d="m333 367.9c0 0.5-0.3 1.8-0.6 2.8-0.5 1.5-0.4 1.5 0.5 0.3 0.8-1.2 1.1-1.2 1.7 0.4 0.4 1.1 0.2 2.1-0.7 2.7-1.1 0.7-1 0.9 0.4 0.9 0.9 0 2.3 1.1 2.9 2.5 0.6 1.4 1.4 2.5 1.9 2.5 0.9 0-4.4-13-5.3-13-0.5 0-0.8 0.4-0.8 0.9z"/><path  d="m344 373.5c0 5.3 0.3 6.5 1.6 6.5 1.3 0 1.4-0.3 0.4-1.5-0.7-0.8-1.1-3.5-0.8-6.5 0.1-2.7 0-5-0.4-5-0.5 0-0.8 2.9-0.8 6.5z"/><path  d="m351.8 368.6c2.2 1.5 3.1 6.9 1.5 9-0.5 0.5 0 0.1 1-0.9 0.9-1.1 1.7-2.7 1.7-3.6 0-2.4-2.9-6.1-4.8-6.1-1.3 0-1.2 0.3 0.6 1.6z"/><path  d="m360.7 372.7c2.9 6.6 3.1 6.8 3.8 6.1 0.3-0.2-0.1-1.8-0.9-3.4-0.8-1.6-1.9-4.1-2.5-5.7-0.6-1.5-1.5-2.7-2-2.7-0.6 0 0.2 2.6 1.6 5.7z"/><path  d="m367.2 370.2c-1.6 4.4-0.9 4.5 1.1 0.3 0.9-1.9 1.3-3.5 0.9-3.5-0.4 0-1.3 1.4-2 3.2z"/><path  d="m373.7 368.8c-1 1-1.7 3.1-1.7 4.5 0 2.7 3 6.7 5.1 6.7 0.6 0 0.2-0.8-1-1.8-2.4-2-3.1-7.3-1.2-9.6 1.9-2.2 0.8-2-1.2 0.2z"/><path  d="m382.3 368.8c1.7 1.9 2.3 7 1 8.8-0.5 0.5 0 0.1 1-0.9 2.2-2.5 2.2-6-0.1-8-2.5-2.3-3.9-2.2-1.9 0.1z"/><path  d="m407 367.9c0 0.5-0.3 1.8-0.6 2.8-0.5 1.5-0.4 1.5 0.5 0.3 0.8-1.2 1.1-1.2 1.7 0.4 0.4 1.1 0.1 2.2-0.7 2.8-1.1 0.8-1.1 0.9 0.3 0.5 1.1-0.4 2 0.3 2.8 2.4 0.7 1.6 1.6 2.9 2.1 2.9 0.4 0-0.3-2.4-1.6-5.3-1.4-2.8-2.5-5.8-2.5-6.5 0-0.6-0.4-1.2-1-1.2-0.5 0-1 0.4-1 0.9z"/><path  d="m432 373.5c0 3.7 0.4 6.5 1 6.5 0.6 0 1-2.8 1-6.5 0-3.7-0.4-6.5-1-6.5-0.6 0-1 2.8-1 6.5z"/><path  d="m442.6 367.9c-0.4 0.6 0 1.8 0.8 2.7 2.2 2.1 2 3.4-0.4 3.4-1.4 0-1.8-0.5-1.4-1.8 0.2-0.9-0.5 0.3-1.6 2.7-1.1 2.4-1.8 4.6-1.5 4.9 0.2 0.3 0.9-0.7 1.4-2.2 1.4-3.6 5.3-3.6 7 0 0.6 1.5 1.4 2.4 1.6 2.2 0.3-0.3-0.8-3.3-2.3-6.8-1.7-3.7-3.2-5.8-3.6-5.1z"/><path  d="m482 368.6c-2.1 2.5-1.6 7.5 0.9 9.6 2.3 1.8 7.6 2.5 8.5 1 0.2-0.4-1-0.6-2.8-0.4-2.6 0.3-3.7-0.1-5-1.9-2.1-3.1-2.1-7.5 0.2-8.8 0.9-0.6 1.2-1.1 0.6-1.1-0.6 0-1.7 0.7-2.4 1.6z"/><path  d="m505.3 368.8c1.9 2.1 2.2 5.4 0.6 8.5-1 2.1-0.9 2.1 1-0.2 1.2-1.3 2.1-3.1 2.1-4 0-2.1-2.8-6.1-4.2-6.1-0.6 0-0.4 0.8 0.5 1.8z"/><path  d="m512.4 368.9c0 1 0.5 1.7 1.2 1.4 0.6-0.2 2.8 1.6 4.9 4.1 2.1 2.6 4.2 4.6 4.7 4.6 0.4 0 0.7-2.8 0.6-6.3l-0.1-6.2-0.6 5.3-0.6 5.2-4.3-5c-4.7-5.4-5.8-6-5.8-3.1z"/><path  d="m529.1 369.2c-0.1 1.8 0.7 3.3 2.7 4.7 2.4 1.7 2.5 2.2 1.5 4-1.1 1.7-1 1.9 0.2 1.5 2.4-0.9 1.8-5.2-0.9-7-1.4-0.8-2.7-2.5-2.9-3.7-0.4-1.9-0.4-1.8-0.6 0.5z"/><path  d="m540.1 372.2c-0.1 4.7 0.2 5.9 1.8 6.8 2.8 1.5 3.8 1.2 1.6-0.4-1.3-0.9-2.1-3.2-2.6-6.7l-0.6-5.4z"/><path  d="m549.3 372c0 3 0.2 4.3 0.4 2.7 0.2-1.5 0.2-3.9 0-5.5-0.2-1.5-0.4-0.2-0.4 2.8z"/><path  d="m568 373.7c0 3.6 0.3 6.4 0.6 6 0.9-0.9 1-12.7 0.2-12.7-0.5 0-0.8 3-0.8 6.7z"/><path  d="m586.3 368.8c2 2.2 2.2 5.4 0.5 8.5-1 1.9-0.9 2 0.4 0.9 2.5-2 3.1-6.1 1.3-8.8-0.8-1.3-2.1-2.4-2.7-2.4-0.6 0-0.4 0.8 0.5 1.8z"/><path  d="m593.8 373.5c-0.1 3.6 0 6.5 0.5 6.5 0.4 0 0.7-1.2 0.8-2.8 0-1.5 0.1-4.4 0.2-6.5 0.1-2-0.1-3.7-0.5-3.7-0.3 0-0.8 2.9-1 6.5z"/><path  d="m599.3 369.5c0.7 1.3 1.4 2 1.5 1.4 0.5-1.4-0.6-3.9-1.7-3.9-0.5 0-0.4 1.1 0.2 2.5z"/><path  d="m607.6 373.1c0.2 8.3 1.4 8.8 1.4 0.6 0-3.7-0.3-6.7-0.7-6.7-0.5 0-0.7 2.7-0.7 6.1z"/><path  d="m617.6 368.5c-0.8 2.3-0.8 2.5 0.6 2.2 0.6-0.1 1.4 0.6 1.6 1.5 0.2 1.1-0.2 1.8-1.2 1.8-0.9 0-1.6-0.6-1.6-1.3 0-0.8-0.4-0.7-1 0.3-1.5 2.3-1.2 2.7 1.8 2.2 2.3-0.3 3 0.1 4 2.3 2.3 5 2.4 1.8 0.1-3.7-2.7-6.5-3.5-7.4-4.3-5.3z"/><path  d="m389 370.5c-1.2 3.1 0.2 7 2.9 8.4 2.4 1.3 6.8 1.4 7.5 0.2 0.3-0.4-0.6-0.6-1.9-0.3-1.4 0.2-3.6-0.3-5.1-1.3-2.2-1.4-2.5-2.3-2.2-5.6 0.4-4.5 0.1-4.9-1.2-1.4z"/><path  d="m416.4 370.5c-1.4 5.8 2.5 10.3 8 9.2q2.4-0.4-0.6-0.6c-4.4-0.2-7.1-3.6-6.3-7.7 0.7-3.9-0.2-4.6-1.1-0.9z"/><path  d="m496.2 369.2c-3.1 3.1 0.3 10.9 4.6 10.7 1.3 0 1.2-0.2-0.6-0.9-3-1.2-4.7-5.7-3.3-8.7 1.2-2.6 1-2.8-0.7-1.1z"/><path  d="m576.6 369.6c-1.9 4.9 1.2 10.5 5.7 10.3l2.2-0.2-2.3-0.4c-3.3-0.6-5.5-4.6-4.7-8.3 0.7-3.2 0.1-4.1-0.9-1.4z"/><path  d="m469 372.9c0 2.5 0.6 2.7 1.3 0.6 0.4-0.8 0.2-1.7-0.3-2-0.6-0.4-1 0.3-1 1.4z"/><path  d="m458.1 374.7c-0.1 3.5 2.5 5.8 5.7 5 1.3-0.4 1.2-0.5-0.4-0.6-2.6-0.1-4-1.7-4.7-5.1-0.4-2.1-0.4-2-0.6 0.7z"/><path  d="m512.1 373.6c0 1.1 0.3 1.4 0.6 0.6 0.3-0.7 0.2-1.6-0.1-1.9-0.3-0.4-0.6 0.2-0.5 1.3z"/><path  d="m330.6 374.5c-0.9 2.6-0.7 3.2 0.5 1.2 0.6-1 0.9-2.1 0.6-2.3-0.2-0.3-0.7 0.2-1.1 1.1z"/><path  d="m404.6 374.5c-0.9 2.6-0.7 3.2 0.5 1.2 0.6-1 0.9-2.1 0.6-2.3-0.2-0.3-0.7 0.2-1.1 1.1z"/><path  d="m598 373.8c0 0.8 4.8 6.2 5.5 6.2 0.2 0-0.6-1.6-1.8-3.5-2.1-3.2-3.7-4.4-3.7-2.7z"/><path  d="m512.1 377.6c0 1.1 0.3 1.4 0.6 0.6 0.3-0.7 0.2-1.6-0.1-1.9-0.3-0.4-0.6 0.2-0.5 1.3z"/><path  d="m613.6 378.5c-0.3 0.8-0.1 1.5 0.4 1.5 0.6 0 1-0.7 1-1.5 0-0.8-0.2-1.5-0.4-1.5-0.2 0-0.6 0.7-1 1.5z"/><path  d="m528.7 379.1c0.7 0.7 1.5 1 1.8 0.7 0.3-0.3-0.2-0.9-1.2-1.2-1.4-0.6-1.5-0.5-0.6 0.5z"/><path  d="m483 392.8c-3.4 2.7-3.2 8.8 0.4 11.8 1.5 1.4 3.9 2.3 5.4 2.3l2.7-0.1-2.9-0.7c-4.2-0.9-7-5.1-6.2-9.4 0.4-2.1 1.5-3.8 2.9-4.5 1.2-0.6 1.7-1.1 1.1-1.1-0.7-0.1-2.2 0.7-3.4 1.7z"/><path  d="m492.9 393.6c2.5 3.2 2.7 7.1 0.6 10.2-1.3 1.7-1.3 2.1-0.2 1.6 1.7-0.6 3.7-4.7 3.7-7.3 0-2.1-3.6-7.1-5.1-7.1-0.6 0-0.1 1.2 1 2.6z"/><path  d="m516.3 398.7c0.2 7.5 0.3 7.8 2.7 8 1.4 0.1 1.8 0 0.8-0.3-1.5-0.5-1.8-1.8-1.8-8 0-4.2-0.4-7.4-1-7.4-0.6 0-0.9 3.2-0.7 7.7z"/><path  d="m521.3 393.4c0.8 1.6 1.4 2 1.9 1.3 0.4-0.6 0.2-1.7-0.4-2.4-1.8-2.2-2.7-1.5-1.5 1.1z"/><path  d="m535.5 393.5c-0.8 1.4-2.2 3.6-3 5-0.8 1.4-2.2 3.6-3.1 5-0.9 1.4-1.4 2.5-1.1 2.5 0.3 0 2.3-2.8 4.4-6.3 5.4-8.5 5.5-8.7 4.9-8.7-0.3 0-1.2 1.1-2.1 2.5z"/><path  d="m542.6 398.5c0.1 7.4 1.3 12 1.5 5.4 0-1.9 0.1-5.5 0.2-8.2 0.1-2.6-0.2-4.7-0.8-4.7-0.6 0-1 3.1-0.9 7.5z"/><path  d="m547.3 391.7c1.6 0.4 2.2 2.1 1.8 5.2-0.2 0.7 0.2 1 0.8 0.6 2.6-1.5 0.3-6.6-2.8-6.4-1.2 0.1-1.2 0.2 0.2 0.6z"/><path  d="m597.8 391.7c2.9 1.1 0.8 8.2-3.5 11.6-1.2 1-2.3 2.2-2.3 2.6 0 0.9 7.6 0.8 8.6-0.2 0.4-0.4-1-0.7-3-0.7h-3.8l3.1-3.1c1.7-1.7 3.4-4.2 3.7-5.5 0.6-2.5-1-5.5-3-5.3-0.7 0-0.6 0.2 0.2 0.6z"/><path  d="m610.4 392.2c-0.5 0.7-0.7 3-0.5 5.1 0.3 3.9 0.2 3.9-2.9 3.5-1.7-0.3-3.3-0.1-3.6 0.4-0.3 0.4 1.1 0.8 3 0.8 3.2 0 3.6 0.3 3.6 2.5 0 1.4 0.5 2.5 1.1 2.5 0.7 0 0.9-1 0.5-2.5-0.4-1.6-0.2-2.5 0.5-2.5 0.8 0 0.9-0.4 0-1.3-0.6-0.8-0.9-3.3-0.7-5.5 0.4-4.4 0.2-5-1-3z"/><path  d="m504 392.8c0 0.5 0.3 1.2 0.7 1.6 0.4 0.4 1.7 3.3 2.9 6.4 1.1 3.1 2.5 5.7 3.1 5.9 0.6 0.2-0.3-3-2-7.1-2.7-6.6-4.7-9.5-4.7-6.8z"/><path  d="m557 393.8c0 1 1.4 3.1 3.1 4.8 2.1 2 2.9 3.6 2.6 5.2-0.3 1.8-0.2 2 0.9 1.1 2-1.6 1.8-2.2-2.1-6.9-1.9-2.3-3.2-4.6-2.9-5.1 0.3-0.5 0-0.9-0.5-0.9-0.6 0-1.1 0.8-1.1 1.8z"/><path  d="m577.7 393.8c-5.5 6.1-2.8 15.4 3.7 12.4 4.1-1.8 3.2-9.2-1.1-9.2-0.8 0-0.5 0.8 0.8 2.1 2.3 2.3 2.2 4.7-0.4 6.3-4.4 2.7-6.1-7.1-2.1-11.5 0.9-1.1 1.5-1.9 1.2-1.9-0.3 0-1.2 0.8-2.1 1.8z"/><path  d="m618 395.2c-2.4 4-2.6 8.1-0.4 10.2 2.1 2.1 4.7 2 6.7-0.2 2.1-2.3 2.2-4.6 0.1-6.6-2.2-2.3-4-2-2 0.3 2.5 2.8 1.7 6.6-1.3 6.6-3.8 0-4.8-4.5-2.2-9.5 2.5-4.8 1.9-5.3-0.9-0.8z"/><path  d="m501.7 399.2c-0.8 2.4-1.8 5.2-2.2 6.3-0.6 1.4-0.5 1.7 0.3 1 1.2-1.2 4.5-10.6 3.8-11.2-0.2-0.2-1.1 1.5-1.9 3.9z"/><path  d="m521 397.7c0 0.6 0.7 1.6 1.6 2.4 1 0.8 1.3 2.1 0.9 3.7-0.4 1.5-0.2 2.1 0.5 1.7 1.7-1 1.1-5.1-1-7-1.1-1-2-1.3-2-0.8z"/><path  d="m547.9 400.7c1.2 2.4 6.1 6.9 6.1 5.7-0.1-1-5.7-7.4-6.5-7.4-0.3 0-0.1 0.8 0.4 1.7z"/><path  d="m557 406.1c0 0.5 0.9 0.9 2 0.9 1.1 0 2-0.2 2-0.4 0-0.2-0.9-0.6-2-0.9-1.1-0.3-2-0.1-2 0.4z"/></svg>