<?xml version="1.0" encoding="utf-8"?>
<!-- Generator: Adobe Illustrator 30.0.0, SVG Export Plug-In . SVG Version: 9.03 Build 0)  -->
<svg version="1.0" id="Camada_1" xmlns="http://www.w3.org/2000/svg" xmlns:xlink="http://www.w3.org/1999/xlink" x="0px" y="0px"
	 viewBox="0 0 652.8 507.2" style="enable-background:new 0 0 652.8 507.2;" xml:space="preserve">
<g transform="translate(0.000000,1024.000000) scale(0.100000,-0.100000)">
	<path d="M2839,9975c-97-98-192-240-473-706l-113-187l-483-1c-369,0-481-3-475-12c6-12,404-622,548-842c40-60,120-184,179-274
		l107-164l-45-121c-59-161-146-464-146-509c0-40,16-56,34-36c7,8,23,64,35,124c12,61,33,142,46,180c36,104,109,284,117,287
		c6,3,111-156,538-813l147-226l-34-114c-19-63-47-170-63-239s-43-183-60-255c-31-124-122-636-116-643c6-5,43,124,85,298
		c110,456,147,600,196,768c30,101,64,200,77,220c12,20,81,127,153,237c73,110,287,439,477,730c190,292,472,723,626,960
		c154,236,279,432,277,435c-2,4-167,8-367,9c-199,1-364,4-365,5c-2,2,6,29,17,62c41,119,62,215,49,230c-6,8-17,14-24,14
		c-19,0-103-94-185-205c-40-55-74-102-76-103c-3-4-886-3-890,1c-1,1,58,153,132,337c134,333,208,552,202,600c-2,17-10,26-26,28
		C2923,10053,2899,10035,2839,9975z M2890,9891c-17-41-43-104-60-140s-83-198-147-360s-120-298-124-302s-62-6-128-5l-120,3l106,176
		c116,192,418,648,459,692C2916,9998,2922,9972,2890,9891z M3721,9185c-39-107-47-115-104-103c-26,5-26,5,49,112
		c42,60,80,104,84,100S3741,9240,3721,9185z M2238,9058c0-8-225-392-291-498c-42-67-46-78-33-89c11-9,20-10,32-3c9,6,64,96,123,200
		c58,104,133,234,166,289l60,100l127,3l128,3l-8-23c-3-13-45-120-91-238c-193-490-216-564-194-625c11-30,7-45-52-194
		c-36-89-67-164-69-167c-3-2-91,127-196,288s-229,352-276,423c-78,120-300,460-334,513l-14,22h461C2030,9062,2238,9060,2238,9058z
		 M3498,9058c0-3-64-103-143-223c-197-300-243-372-364-570c-57-95-109-173-114-173c-16,0-4,30,86,220c107,224,136,298,123,306
		c-15,10-32-12-93-121c-35-61-54-88-51-70c3,17,9,51,12,78c11,78-16,60-101-67c-42-63-83-120-91-127s10,41,40,105
		c53,112,117,292,131,366c9,49-11,74-50,64c-33-8-213-183-281-274c-83-111-166-225-174-240c-14-25-19-7-10,35c12,52,12,85,1,85
		c-5,0-13-9-16-21c-4-11-32-73-62-137c-56-118-79-137-48-40c20,61,260,664,299,751l26,57h440C3300,9062,3498,9060,3498,9058z
		 M3668,9049c0-7-13-46-29-87s-76-208-134-370s-147-405-197-540c-103-273-333-965-411-1237c-18-62-35-113-39-113c-3,1-27,35-54,78
		c-28,42-96,147-151,232c-274,419-443,678-459,705l-18,31l85,191c76,171,98,210,210,370c134,190,384,502,404,503c6,0,15-4,18-10
		c13-22-73-249-214-562c-65-145-75-188-41-188c29,0,50,28,145,196c49,84,91,151,95,149c4-3-7-55-25-117c-37-131-52-243-34-264
		c14-17,48-18,70-1c14,11,102,150,296,467c112,182,145,232,268,408l120,172h47C3652,9062,3668,9058,3668,9049z M4448,9055
		c0-6-86-139-503-778c-133-204-283-433-333-510s-216-331-368-565c-153-234-284-431-291-439c-18-18-2,34,122,419
		c53,162,111,345,130,405c20,61,91,259,158,440c68,182,148,402,178,490c53,153,174,506,182,533c4,9,85,12,365,12
		C4286,9062,4448,9059,4448,9055z"/>
	<path d="M171,7131c15-9,17-30,17-217c0-223-3-249-29-255c-9-3,12-5,47-6c58-1,62,0,48,15c-12,12-16,37-16,105v89h48l47-1l55-75
		c30-42,70-89,88-105c30-27,39-29,111-29c70,0,79,2,75,18c-3,9,4,42,14,72l19,55l75,3l75,3l29-75l29-76l50,1c41,0,46,2,27,9
		c-25,11-54,68-142,288c-29,72-56,132-59,132s-35-75-70-168c-88-227-100-252-122-252c-25,0-78,48-150,137l-60,76l25,26
		c30,31,56,90,56,126c0,38-26,83-60,100C363,7145,140,7149,171,7131z M366,7100c48-46,53-139,11-192c-19-24-27-27-78-24l-56,3
		l-3,114c-2,85,1,117,10,123C271,7138,341,7123,366,7100z M828,6835c0-9-18-13-60-13c-33,0-60,2-60,3c0,5,36,106,50,142l12,30l29-75
		C815,6881,828,6842,828,6835z"/>
	<path d="M3465,7050c-41-400-44-417-70-428c-15-6-1-9,48-8c39,0,60,3,48,5s-24,10-26,17c-5,12,7,193,18,276c2,19,5,44,5,55
		c1,11,41-63,90-163c51-106,94-182,101-180c6,2,50,87,98,188c99,213,90,217,112-47l12-153l66,1c36,1,54,4,38,6c-15,2-34,14-41,26
		c-12,20-35,190-52,390c-4,45-11,76-17,74s-52-93-103-202c-82-176-114-231-114-197c0,17-192,402-200,402
		C3474,7112,3468,7084,3465,7050z"/>
	<path d="M1515,7052c-8-19-44-113-82-208c-51-131-72-175-89-182c-16-7-11-9,26-9c38-1,46,2,42,14c-4,9,4,42,16,75l22,60h74h74l16-37
		c8-21,21-55,27-75l12-38l55,1c30,1,45,4,32,6c-31,6-41,24-120,220C1529,7102,1533,7096,1515,7052z M1563,6897c12-35,20-66,17-69
		s-30-6-60-6c-54,0-54,0-49,28c3,15,15,54,28,86C1523,7003,1524,7002,1563,6897z"/>
	<path d="M1066,7065c22-4,22-5,22-203c0-149-3-200-12-203c-7-3,14-5,47-5s53,2,43,5c-13,3-18,22-23,88c-4,47-5,91-1,100
		c4,11,20,15,60,15c45,0,58-4,70-22c16-22,16-22,16,12v35h-72h-73l-3,50c-2,27-1,65,3,82c6,32,7,33,60,33c41,0,60-5,74-19
		c19-19,19-19,23,10l5,29l-131-1C1102,7070,1053,7067,1066,7065z"/>
	<path d="M1818,7063l25-7l3-186c2-161,0-188-14-202c-15-15-7-16,102-14l119,3l3,30l4,29l-19-23c-15-18-30-24-64-25
		c-77-1-79,1-79,104v90h55c41,0,56-4,64-17c9-16,10-16,11-1c0,9,2,23,5,30c4,11-8,13-65,10l-70-4v86v86h43c58,0,85-9,90-29
		c2-9,5-1,8,17l6,32l-126-1C1850,7070,1804,7067,1818,7063z"/>
	<path d="M2186,7062c22-9,22-12,22-199c0-170-2-191-17-200c-13-8,19-10,113-11h132l6,32c7,36,1,50-9,19c-3-11-16-23-28-27
		c-34-11-117-8-130,5s-24,313-13,355c3,14,14,27,24,29c9,3-14,5-53,5C2182,7071,2169,7068,2186,7062z"/>
	<path d="M4218,7031c-63-3-107-6-97-7c15-2,17-18,17-189c0-104-4-193-8-199s-14-14-22-17s42-6,113-6c119-1,127,0,127,18
		c0,11,3,28,6,38c5,15,3,15-7-2c-19-30-30-35-86-35c-65,0-73,12-73,114v76h60c46,0,61-4,69-17c8-15,10-11,11,19c0,34-2,37-22,30
		c-13-4-43-7-68-7h-45l-3,83l-3,82h60c47,0,62-4,70-17c12-23,23-12,19,19C4333,7037,4333,7037,4218,7031z"/>
	<path d="M4495,7036c-3-6-6-90-6-187s-1-188-1-201c0-15-7-26-17-29s11-5,47-4c36,0,55,2,43,4s-24,12-27,21c-8,31-18,302-10,302
		c4,0,80-75,170-167c89-92,165-165,168-162c4,3,6,59,6,125c0,188,10,282,29,287c9,3-11,5-44,5c-45,1-54-1-37-8c18-8,22-17,22-57
		c0-26,3-100,6-163l6-115l-174,180C4580,6965,4499,7041,4495,7036z"/>
	<path d="M5118,7031c-63-3-108-6-99-7c26-3,29-23,29-187c0-172-5-212-29-218c-9-3,40-4,109-4l125,2l3,35c3,34,2,35-10,10
		c-11-21-22-25-67-28c-74-4-81,4-81,104v84h60c49,0,60-3,60-17c0-24,6-13,13,23l6,31l-42-6c-94-14-92-16-95,77l-3,82h62
		c55,0,61-2,67-22c5-21,6-21,14,7c4,16,4,32,0,35S5181,7035,5118,7031z"/>
	<path d="M5372,6999c-3-21-3-41,0-44c3-4,6,1,6,10c0,34,40,47,143,47h98l-127-187c-69-103-128-193-131-200c-4-10,29-13,155-13
		c157,0,160,0,166,23c3,12,5,31,5,42c0,19-1,18-11-2c-6-13-26-27-47-33c-41-11-201-14-201-3c0,4,57,92,126,196
		c70,103,125,190,123,192s-70,5-151,7l-147,3L5372,6999z"/>
	<path d="M5888,7032c-63-3-105-8-92-12c22-6,22-8,22-180c0-188-4-215-29-221c-9-3,40-4,109-4l125,2l3,30l3,30l-16-22
		c-13-19-26-23-69-23c-28,0-57,5-64,12s-12,44-12,95v83h60c48,0,60-3,60-16c0-8,5-12,10-9c6,3,10,20,10,36c0,17-4,28-8,25
		c-4-2-35-6-67-8l-60-3l-3,83l-3,82h61c54,0,62-3,69-22c9-23,9-22,16,5c4,16,4,32-1,35C6007,7034,5951,7035,5888,7032z"/>
	<path d="M6181,7021c-64-41-56-119,20-182c101-84,117-103,117-139c0-42-24-67-71-74c-48-8-87,10-104,48l-15,33l3-44c2-40,5-46,32-53
		c44-13,121-2,155,22c17,12,34,37,41,60c10,32,9,44-7,76c-11,21-39,53-64,71c-87,63-110,88-110,120c0,42,27,63,83,63
		c37,0,49-5,66-26l21-27v31c0,36-13,42-83,42C6230,7042,6203,7035,6181,7021z"/>
	<path d="M4728,6508c0-2,9-6,20-9s18-1,14,4C4757,6512,4728,6516,4728,6508z"/>
	<path d="M4699,6471c-1-17,10-36,34-59c19-18,31-38,28-43c-3-6-1-7,5-3s22,2,34-5c13-6-3,12-34,40c-31,29-59,62-61,74
		C4701,6495,4701,6494,4699,6471z"/>
	<path d="M5660,6425l-2-73l33,1c29,2,30,2,5,6c-26,4-27,7-31,71l-3,67L5660,6425z"/>
	<path d="M3428,6473c0-5-3-18-6-28c-5-15-4-15,5-3c8,12,11,12,17-4c4-11,2-21-7-27c-11-7-10-9,4-9c9,0,23-11,29-25s14-25,19-25
		c9,0-44,130-53,130C3431,6482,3428,6478,3428,6473z"/>
	<path d="M3538,6417c0-53,3-65,16-65s14,3,4,15c-7,8-11,35-8,65c1,27,0,50-4,50C3541,6482,3538,6453,3538,6417z"/>
	<path d="M3616,6466c22-15,31-69,15-90c-5-5,0-1,10,9c9,11,17,27,17,36c0,24-29,61-48,61C3597,6482,3598,6479,3616,6466z"/>
	<path d="M3705,6425c29-66,31-68,38-61c3,2-1,18-9,34s-19,41-25,57c-6,15-15,27-20,27C3683,6482,3691,6456,3705,6425z"/>
	<path d="M3770,6450c-16-44-9-45,11-3c9,19,13,35,9,35S3777,6468,3770,6450z"/>
	<path d="M3835,6464c-10-10-17-31-17-45c0-27,30-67,51-67c6,0,2,8-10,18c-24,20-31,73-12,96C3866,6488,3855,6486,3835,6464z"/>
	<path d="M3921,6464c17-19,23-70,10-88c-5-5,0-1,10,9c22,25,22,60-1,80C3915,6488,3901,6487,3921,6464z"/>
	<path d="M4168,6473c0-5-3-18-6-28c-5-15-4-15,5-3c8,12,11,12,17-4c4-11,1-22-7-28c-11-8-11-9,3-5c11,4,20-3,28-24c7-16,16-29,21-29
		c4,0-3,24-16,53c-14,28-25,58-25,65c0,6-4,12-10,12C4173,6482,4168,6478,4168,6473z"/>
	<path d="M4418,6417c0-37,4-65,10-65s10,28,10,65s-4,65-10,65S4418,6454,4418,6417z"/>
	<path d="M4524,6473c-4-6,0-18,8-27c22-21,20-34-4-34c-14,0-18,5-14,18c2,9-5-3-16-27s-18-46-15-49c2-3,9,7,14,22c14,36,53,36,70,0
		c6-15,14-24,16-22c3,3-8,33-23,68C4543,6459,4528,6480,4524,6473z"/>
	<path d="M4918,6466c-21-25-16-75,9-96c23-18,76-25,85-10c2,4-10,6-28,4c-26-3-37,1-50,19c-21,31-21,75,2,88c9,6,12,11,6,11
		S4925,6475,4918,6466z"/>
	<path d="M5151,6464c19-21,22-54,6-85c-10-21-9-21,10,2c12,13,21,31,21,40c0,21-28,61-42,61C5140,6482,5142,6474,5151,6464z"/>
	<path d="M5222,6463c0-10,5-17,12-14c6,2,28-16,49-41c21-26,42-46,47-46c4,0,7,28,6,63l-1,62l-6-53l-6-52l-43,50
		C5233,6486,5222,6492,5222,6463z"/>
	<path d="M5389,6460c-1-18,7-33,27-47c24-17,25-22,15-40c-11-17-10-19,2-15c24,9,18,52-9,70c-14,8-27,25-29,37
		C5391,6484,5391,6483,5389,6460z"/>
	<path d="M5499,6430c-1-47,2-59,18-68c28-15,38-12,16,4c-13,9-21,32-26,67l-6,54L5499,6430z"/>
	<path d="M5591,6432c0-30,2-43,4-27c2,15,2,39,0,55C5593,6475,5591,6462,5591,6432z"/>
	<path d="M5778,6415c0-36,3-64,6-60c9,9,10,127,2,127C5781,6482,5778,6452,5778,6415z"/>
	<path d="M5961,6464c20-22,22-54,5-85c-10-19-9-20,4-9c25,20,31,61,13,88c-8,13-21,24-27,24S5952,6474,5961,6464z"/>
	<path d="M6036,6417c-1-36,0-65,5-65c4,0,7,12,8,28c0,15,1,44,2,65c1,20-1,37-5,37C6043,6482,6038,6453,6036,6417z"/>
	<path d="M6091,6457c7-13,14-20,15-14c5,14-6,39-17,39C6084,6482,6085,6471,6091,6457z"/>
	<path d="M6174,6421c2-83,14-88,14-6c0,37-3,67-7,67C6176,6482,6174,6455,6174,6421z"/>
	<path d="M6274,6467c-8-23-8-25,6-22c6,1,14-6,16-15c2-11-2-18-12-18c-9,0-16,6-16,13c0,8-4,7-10-3c-15-23-12-27,18-22
		c23,3,30-1,40-23c23-50,24-18,1,37C6290,6479,6282,6488,6274,6467z"/>
	<path d="M3988,6447c-12-31,2-70,29-84c24-13,68-14,75-2c3,4-6,6-19,3c-14-2-36,3-51,13c-22,14-25,23-22,56
		C4004,6478,4001,6482,3988,6447z"/>
	<path d="M4262,6447c-14-58,25-103,80-92c16,3,14,5-6,6c-44,2-71,36-63,77C4280,6477,4271,6484,4262,6447z"/>
	<path d="M5060,6460c-31-31,3-109,46-107c13,0,12,2-6,9c-30,12-47,57-33,87C5079,6475,5077,6477,5060,6460z"/>
	<path d="M5864,6456c-19-49,12-105,57-103l22,2l-23,4c-33,6-55,46-47,83C5880,6474,5874,6483,5864,6456z"/>
	<path d="M4788,6423c0-25,6-27,13-6c4,8,2,17-3,20C4792,6441,4788,6434,4788,6423z"/>
	<path d="M4679,6405c-1-35,25-58,57-50c13,4,12,5-4,6c-26,1-40,17-47,51C4681,6433,4681,6432,4679,6405z"/>
	<path d="M5219,6416c0-11,3-14,6-6c3,7,2,16-1,19C5221,6433,5218,6427,5219,6416z"/>
	<path d="M3404,6407c-9-26-7-32,5-12c6,10,9,21,6,23C3413,6421,3408,6416,3404,6407z"/>
	<path d="M4144,6407c-9-26-7-32,5-12c6,10,9,21,6,23C4153,6421,4148,6416,4144,6407z"/>
	<path d="M6078,6414c0-8,48-62,55-62c2,0-6,16-18,35C6094,6419,6078,6431,6078,6414z"/>
	<path d="M5219,6376c0-11,3-14,6-6c3,7,2,16-1,19C5221,6393,5218,6387,5219,6376z"/>
	<path d="M6234,6367c-3-8-1-15,4-15c6,0,10,7,10,15s-2,15-4,15S6238,6375,6234,6367z"/>
	<path d="M5385,6361c7-7,15-10,18-7s-2,9-12,12C5377,6372,5376,6371,5385,6361z"/>
	<path d="M4928,6224c-34-27-32-88,4-118c15-14,39-23,54-23l27,1l-29,7c-42,9-70,51-62,94c4,21,15,38,29,45c12,6,17,11,11,11
		C4955,6242,4940,6234,4928,6224z"/>
	<path d="M5027,6216c25-32,27-71,6-102c-13-17-13-21-2-16c17,6,37,47,37,73c0,21-36,71-51,71C5011,6242,5016,6230,5027,6216z"/>
	<path d="M5261,6165c2-75,3-78,27-80c14-1,18,0,8,3c-15,5-18,18-18,80c0,42-4,74-10,74S5259,6210,5261,6165z"/>
	<path d="M5311,6218c8-16,14-20,19-13c4,6,2,17-4,24C5308,6251,5299,6244,5311,6218z"/>
	<path d="M5453,6217c-8-14-22-36-30-50s-22-36-31-50s-14-25-11-25s23,28,44,63c54,85,55,87,49,87C5471,6242,5462,6231,5453,6217z"/>
	<path d="M5524,6167c1-74,13-120,15-54c0,19,1,55,2,82c1,26-2,47-8,47S5523,6211,5524,6167z"/>
	<path d="M5571,6235c16-4,22-21,18-52c-2-7,2-10,8-6c26,15,3,66-28,64C5557,6240,5557,6239,5571,6235z"/>
	<path d="M6076,6235c29-11,8-82-35-116c-12-10-23-22-23-26c0-9,76-8,86,2c4,4-10,7-30,7h-38l31,31c17,17,34,42,37,55
		c6,25-10,55-30,53C6067,6241,6068,6239,6076,6235z"/>
	<path d="M6202,6230c-5-7-7-30-5-51c3-39,2-39-29-35c-17,3-33,1-36-4c-3-4,11-8,30-8c32,0,36-3,36-25c0-14,5-25,11-25c7,0,9,10,5,25
		c-4,16-2,25,5,25c8,0,9,4,0,13c-6,8-9,33-7,55C6216,6244,6214,6250,6202,6230z"/>
	<path d="M5138,6224c0-5,3-12,7-16s17-33,29-64c11-31,25-57,31-59s-3,30-20,71C5158,6222,5138,6251,5138,6224z"/>
	<path d="M5668,6214c0-10,14-31,31-48c21-20,29-36,26-52c-3-18-2-20,9-11c20,16,18,22-21,69c-19,23-32,46-29,51s0,9-5,9
		C5673,6232,5668,6224,5668,6214z"/>
	<path d="M5875,6214c-55-61-28-154,37-124c41,18,32,92-11,92c-8,0-5-8,8-21c23-23,22-47-4-63c-44-27-61,71-21,115c9,11,15,19,12,19
		S5884,6224,5875,6214z"/>
	<path d="M6278,6200c-24-40-26-81-4-102c21-21,47-20,67,2c21,23,22,46,1,66c-22,23-40,20-20-3c25-28,17-66-13-66c-38,0-48,45-22,95
		C6312,6240,6306,6245,6278,6200z"/>
	<path d="M5115,6160c-8-24-18-52-22-63c-6-14-5-17,3-10c12,12,45,106,38,112C5132,6201,5123,6184,5115,6160z"/>
	<path d="M5308,6175c0-6,7-16,16-24c10-8,13-21,9-37c-4-15-2-21,5-17c17,10,11,51-10,70C5317,6177,5308,6180,5308,6175z"/>
	<path d="M5577,6145c12-24,61-69,61-57c-1,10-57,74-65,74C5570,6162,5572,6154,5577,6145z"/>
	<path d="M5668,6091c0-5,9-9,20-9s20,2,20,4s-9,6-20,9S5668,6096,5668,6091z"/>
</g>
</svg>
